<mxfile host="65bd71144e">
    <diagram id="nvnnfnN3T7ylP6F-YQjb" name="MainFlow">
        <mxGraphModel dx="1180" dy="1455" grid="1" gridSize="10" guides="1" tooltips="1" connect="1" arrows="1" fold="1" page="1" pageScale="1" pageWidth="827" pageHeight="1169" math="0" shadow="0">
            <root>
                <mxCell id="0"/>
                <mxCell id="1" parent="0"/>
                <mxCell id="3" value="Main flow of Floodpipe" style="text;strokeColor=none;fillColor=none;html=1;fontSize=24;fontStyle=1;verticalAlign=middle;align=center;rounded=0;" parent="1" vertex="1">
                    <mxGeometry x="8" width="812" height="40" as="geometry"/>
                </mxCell>
                <mxCell id="8" style="edgeStyle=none;html=1;exitX=0.5;exitY=1;exitDx=0;exitDy=0;exitPerimeter=0;entryX=0.5;entryY=0;entryDx=0;entryDy=0;rounded=0;" parent="1" source="6" target="7" edge="1">
                    <mxGeometry relative="1" as="geometry"/>
                </mxCell>
                <mxCell id="6" value="Programstart" style="strokeWidth=2;html=1;shape=mxgraph.flowchart.start_1;whiteSpace=wrap;rounded=0;" parent="1" vertex="1">
                    <mxGeometry x="328" y="80" width="172" height="60" as="geometry"/>
                </mxCell>
                <mxCell id="7" value="Default startlayout&lt;br&gt;(Lables, Text, Buttons and empty gamefield)" style="rounded=0;whiteSpace=wrap;html=1;absoluteArcSize=1;arcSize=14;strokeWidth=2;" parent="1" vertex="1">
                    <mxGeometry x="328" y="230" width="172" height="60" as="geometry"/>
                </mxCell>
                <mxCell id="18" value="New Game" style="whiteSpace=wrap;html=1;align=center;verticalAlign=middle;treeFolding=1;treeMoving=1;rounded=0;" parent="1" vertex="1">
                    <mxGeometry x="304" y="434.5" width="100" height="60" as="geometry"/>
                </mxCell>
                <mxCell id="26" style="edgeStyle=none;html=1;exitX=0.5;exitY=1;exitDx=0;exitDy=0;entryX=0.5;entryY=0;entryDx=0;entryDy=0;entryPerimeter=0;rounded=0;" parent="1" source="19" target="24" edge="1">
                    <mxGeometry relative="1" as="geometry"/>
                </mxCell>
                <mxCell id="19" value="Exit" style="whiteSpace=wrap;html=1;align=center;verticalAlign=middle;treeFolding=1;treeMoving=1;rounded=0;" parent="1" vertex="1">
                    <mxGeometry x="364" y="700" width="100" height="60" as="geometry"/>
                </mxCell>
                <mxCell id="20" value="Save" style="whiteSpace=wrap;html=1;align=center;verticalAlign=middle;treeFolding=1;treeMoving=1;newEdgeStyle={&quot;edgeStyle&quot;:&quot;elbowEdgeStyle&quot;,&quot;startArrow&quot;:&quot;none&quot;,&quot;endArrow&quot;:&quot;none&quot;};rounded=0;" parent="1" vertex="1">
                    <mxGeometry x="424" y="524.5" width="100" height="60" as="geometry"/>
                </mxCell>
                <mxCell id="21" value="" style="edgeStyle=elbowEdgeStyle;elbow=vertical;startArrow=none;endArrow=none;rounded=0;entryX=0;entryY=0.5;entryDx=0;entryDy=0;" parent="1" target="20" edge="1">
                    <mxGeometry relative="1" as="geometry">
                        <mxPoint x="414" y="464.5" as="sourcePoint"/>
                        <Array as="points">
                            <mxPoint x="420" y="554.5"/>
                        </Array>
                    </mxGeometry>
                </mxCell>
                <mxCell id="28" style="edgeStyle=none;html=1;exitX=0;exitY=0.5;exitDx=0;exitDy=0;entryX=1;entryY=0.5;entryDx=0;entryDy=0;rounded=0;" parent="1" source="22" target="27" edge="1">
                    <mxGeometry relative="1" as="geometry"/>
                </mxCell>
                <mxCell id="22" value="Load" style="whiteSpace=wrap;html=1;align=center;verticalAlign=middle;treeFolding=1;treeMoving=1;newEdgeStyle={&quot;edgeStyle&quot;:&quot;elbowEdgeStyle&quot;,&quot;startArrow&quot;:&quot;none&quot;,&quot;endArrow&quot;:&quot;none&quot;};rounded=0;" parent="1" vertex="1">
                    <mxGeometry x="304" y="524.5" width="100" height="60" as="geometry"/>
                </mxCell>
                <mxCell id="23" value="" style="edgeStyle=elbowEdgeStyle;elbow=vertical;startArrow=none;endArrow=none;rounded=0;entryX=1;entryY=0.5;entryDx=0;entryDy=0;" parent="1" target="22" edge="1">
                    <mxGeometry relative="1" as="geometry">
                        <mxPoint x="410" y="554.5" as="sourcePoint"/>
                        <Array as="points">
                            <mxPoint x="420" y="554.5"/>
                        </Array>
                    </mxGeometry>
                </mxCell>
                <mxCell id="24" value="End of process" style="strokeWidth=2;html=1;shape=mxgraph.flowchart.terminator;whiteSpace=wrap;rounded=0;" parent="1" vertex="1">
                    <mxGeometry x="364" y="1010" width="100" height="60" as="geometry"/>
                </mxCell>
                <mxCell id="29" style="edgeStyle=none;html=1;exitX=0.5;exitY=0;exitDx=0;exitDy=0;rounded=0;" parent="1" source="27" edge="1">
                    <mxGeometry relative="1" as="geometry">
                        <mxPoint x="410" y="380" as="targetPoint"/>
                        <Array as="points">
                            <mxPoint x="200" y="380"/>
                        </Array>
                    </mxGeometry>
                </mxCell>
                <mxCell id="27" value="Load from file" style="rounded=0;whiteSpace=wrap;html=1;absoluteArcSize=1;arcSize=14;strokeWidth=2;" parent="1" vertex="1">
                    <mxGeometry x="150" y="534.5" width="100" height="40" as="geometry"/>
                </mxCell>
            </root>
        </mxGraphModel>
    </diagram>
    <diagram id="_IT3c_-uy8F1vy24gcH0" name="Filestructure">
        <mxGraphModel dx="927" dy="1143" grid="1" gridSize="10" guides="1" tooltips="1" connect="1" arrows="1" fold="1" page="1" pageScale="1" pageWidth="827" pageHeight="1169" math="0" shadow="0">
            <root>
                <mxCell id="EOfsPba7yxgSOuHIYxgx-0"/>
                <mxCell id="EOfsPba7yxgSOuHIYxgx-1" parent="EOfsPba7yxgSOuHIYxgx-0"/>
                <mxCell id="aeSHPprnvVVP8BhaO4EL-0" value="Filestructure" style="text;strokeColor=none;fillColor=none;html=1;fontSize=24;fontStyle=1;verticalAlign=middle;align=center;" vertex="1" parent="EOfsPba7yxgSOuHIYxgx-1">
                    <mxGeometry x="10" width="808" height="40" as="geometry"/>
                </mxCell>
                <mxCell id="aeSHPprnvVVP8BhaO4EL-15" value="" style="edgeStyle=none;html=1;" edge="1" parent="EOfsPba7yxgSOuHIYxgx-1" source="aeSHPprnvVVP8BhaO4EL-2" target="aeSHPprnvVVP8BhaO4EL-14">
                    <mxGeometry relative="1" as="geometry"/>
                </mxCell>
                <mxCell id="aeSHPprnvVVP8BhaO4EL-2" value="&lt;p style=&quot;margin: 0px ; margin-top: 4px ; text-align: center&quot;&gt;&lt;b&gt;UMain.pas&lt;/b&gt;&lt;/p&gt;&lt;hr&gt;&lt;p style=&quot;margin: 0px ; margin-left: 8px ; text-align: center&quot;&gt;&lt;br&gt;&lt;/p&gt;" style="shape=rect;html=1;overflow=fill;whiteSpace=wrap;" vertex="1" parent="EOfsPba7yxgSOuHIYxgx-1">
                    <mxGeometry x="314" y="320" width="200" height="80" as="geometry"/>
                </mxCell>
                <mxCell id="aeSHPprnvVVP8BhaO4EL-10" style="edgeStyle=none;html=1;entryX=0;entryY=0.5;entryDx=0;entryDy=0;" edge="1" parent="EOfsPba7yxgSOuHIYxgx-1" source="aeSHPprnvVVP8BhaO4EL-3" target="aeSHPprnvVVP8BhaO4EL-5">
                    <mxGeometry relative="1" as="geometry"/>
                </mxCell>
                <mxCell id="aeSHPprnvVVP8BhaO4EL-12" style="edgeStyle=none;html=1;exitX=0.5;exitY=1;exitDx=0;exitDy=0;entryX=0;entryY=0.5;entryDx=0;entryDy=0;" edge="1" parent="EOfsPba7yxgSOuHIYxgx-1" source="aeSHPprnvVVP8BhaO4EL-3" target="aeSHPprnvVVP8BhaO4EL-2">
                    <mxGeometry relative="1" as="geometry">
                        <Array as="points">
                            <mxPoint x="160" y="360"/>
                        </Array>
                    </mxGeometry>
                </mxCell>
                <mxCell id="aeSHPprnvVVP8BhaO4EL-3" value="&lt;p style=&quot;margin: 0px ; margin-top: 4px ; text-align: center&quot;&gt;&lt;b&gt;UProperties&lt;/b&gt;&lt;b&gt;.pas&lt;/b&gt;&lt;/p&gt;&lt;hr&gt;&lt;p style=&quot;margin: 0px ; margin-left: 8px ; text-align: center&quot;&gt;&lt;br&gt;&lt;/p&gt;" style="shape=rect;html=1;overflow=fill;whiteSpace=wrap;" vertex="1" parent="EOfsPba7yxgSOuHIYxgx-1">
                    <mxGeometry x="60" y="80" width="200" height="80" as="geometry"/>
                </mxCell>
                <mxCell id="aeSHPprnvVVP8BhaO4EL-11" style="edgeStyle=none;html=1;exitX=0.5;exitY=1;exitDx=0;exitDy=0;entryX=0.5;entryY=0;entryDx=0;entryDy=0;" edge="1" parent="EOfsPba7yxgSOuHIYxgx-1" source="aeSHPprnvVVP8BhaO4EL-5" target="aeSHPprnvVVP8BhaO4EL-2">
                    <mxGeometry relative="1" as="geometry"/>
                </mxCell>
                <mxCell id="aeSHPprnvVVP8BhaO4EL-5" value="&lt;p style=&quot;margin: 0px ; margin-top: 4px ; text-align: center&quot;&gt;&lt;b&gt;UFunctions.pas&lt;/b&gt;&lt;/p&gt;&lt;hr&gt;&lt;p style=&quot;margin: 0px ; margin-left: 8px ; text-align: center&quot;&gt;&lt;br&gt;&lt;/p&gt;" style="shape=rect;html=1;overflow=fill;whiteSpace=wrap;" vertex="1" parent="EOfsPba7yxgSOuHIYxgx-1">
                    <mxGeometry x="314" y="80" width="200" height="80" as="geometry"/>
                </mxCell>
                <mxCell id="aeSHPprnvVVP8BhaO4EL-9" style="edgeStyle=none;html=1;entryX=1;entryY=0.5;entryDx=0;entryDy=0;" edge="1" parent="EOfsPba7yxgSOuHIYxgx-1" source="aeSHPprnvVVP8BhaO4EL-7" target="aeSHPprnvVVP8BhaO4EL-5">
                    <mxGeometry relative="1" as="geometry"/>
                </mxCell>
                <mxCell id="aeSHPprnvVVP8BhaO4EL-13" style="edgeStyle=none;html=1;exitX=0.5;exitY=1;exitDx=0;exitDy=0;entryX=1;entryY=0.5;entryDx=0;entryDy=0;" edge="1" parent="EOfsPba7yxgSOuHIYxgx-1" source="aeSHPprnvVVP8BhaO4EL-7" target="aeSHPprnvVVP8BhaO4EL-2">
                    <mxGeometry relative="1" as="geometry">
                        <Array as="points">
                            <mxPoint x="660" y="360"/>
                        </Array>
                    </mxGeometry>
                </mxCell>
                <mxCell id="aeSHPprnvVVP8BhaO4EL-7" value="&lt;p style=&quot;margin: 0px ; margin-top: 4px ; text-align: center&quot;&gt;&lt;b&gt;UTypedefine.pas&lt;/b&gt;&lt;/p&gt;&lt;hr&gt;&lt;p style=&quot;margin: 0px ; margin-left: 8px ; text-align: center&quot;&gt;&lt;br&gt;&lt;/p&gt;" style="shape=rect;html=1;overflow=fill;whiteSpace=wrap;" vertex="1" parent="EOfsPba7yxgSOuHIYxgx-1">
                    <mxGeometry x="560" y="80" width="200" height="80" as="geometry"/>
                </mxCell>
                <mxCell id="aeSHPprnvVVP8BhaO4EL-14" value="&lt;p style=&quot;margin: 0px ; margin-top: 4px ; text-align: center&quot;&gt;&lt;b&gt;Floodpipe.drp&lt;/b&gt;&lt;/p&gt;&lt;hr&gt;&lt;p style=&quot;margin: 0px ; margin-left: 8px ; text-align: center&quot;&gt;&lt;br&gt;&lt;/p&gt;" style="shape=rect;html=1;overflow=fill;whiteSpace=wrap;" vertex="1" parent="EOfsPba7yxgSOuHIYxgx-1">
                    <mxGeometry x="314" y="480" width="200" height="80" as="geometry"/>
                </mxCell>
            </root>
        </mxGraphModel>
    </diagram>
</mxfile>